<svg xmlns="http://www.w3.org/2000/svg" width="70.03" height="70.03" viewBox="0 0 70.03 70.03">
  <defs>
    <style>
      .cls-1 {
        fill: #121212;
        fill-rule: evenodd;
      }
    </style>
  </defs>
  <path id="Instagram_Icon" data-name="Instagram Icon" class="cls-1" d="M3382.79,1356.59a17.955,17.955,0,1,0,17.95,17.96A17.933,17.933,0,0,0,3382.79,1356.59Zm0,29.63a11.675,11.675,0,1,1,11.67-11.67A11.7,11.7,0,0,1,3382.79,1386.22Zm22.87-30.36a4.185,4.185,0,1,0-4.18,4.19A4.187,4.187,0,0,0,3405.66,1355.86Zm11.89,4.25c-0.26-5.61-1.54-10.58-5.65-14.67s-9.07-5.38-14.67-5.66c-5.79-.33-23.11-0.33-28.9,0-5.59.27-10.56,1.55-14.67,5.64s-5.37,9.06-5.65,14.67c-0.33,5.78-.33,23.11,0,28.89,0.26,5.61,1.54,10.58,5.65,14.68s9.07,5.37,14.67,5.65c5.79,0.33,23.11.33,28.9,0,5.6-.26,10.57-1.54,14.67-5.65s5.37-9.07,5.65-14.68C3417.88,1383.2,3417.88,1365.89,3417.55,1360.11Zm-7.47,35.08a11.759,11.759,0,0,1-6.65,6.65c-4.61,1.83-15.55,1.41-20.64,1.41s-16.05.41-20.64-1.41a11.805,11.805,0,0,1-6.66-6.65c-1.83-4.61-1.41-15.55-1.41-20.64s-0.4-16.05,1.41-20.64a11.793,11.793,0,0,1,6.66-6.66c4.61-1.83,15.54-1.41,20.64-1.41s16.04-.4,20.64,1.41a11.805,11.805,0,0,1,6.65,6.66c1.83,4.61,1.41,15.54,1.41,20.64S3411.91,1390.59,3410.08,1395.19Z" transform="translate(-3347.78 -1339.53)"/>
</svg>
