<svg xmlns="http://www.w3.org/2000/svg" width="70" height="70" viewBox="0 0 70 70">
  <defs>
    <style>
      .cls-1 {
        fill: #121212;
        fill-rule: evenodd;
      }
    </style>
  </defs>
  <path id="Linked_In_Icon" data-name="Linked In Icon" class="cls-1" d="M3756.77,1339.56h-60.01a5.03,5.03,0,0,0-4.99,5.05v59.91a5.021,5.021,0,0,0,4.99,5.04h60.01a5.03,5.03,0,0,0,5-5.04v-59.91A5.038,5.038,0,0,0,3756.77,1339.56Zm-43.84,60h-10.38v-33.4h10.39v33.4h-0.01Zm-5.19-37.97a6.015,6.015,0,1,1,6.02-6.01A6.009,6.009,0,0,1,3707.74,1361.59Zm44.08,37.97h-10.38v-16.25c0-3.87-.07-8.86-5.39-8.86-5.4,0-6.23,4.22-6.23,8.58v16.53h-10.38v-33.4h9.96v4.56h0.14a10.916,10.916,0,0,1,9.83-5.39c10.5,0,12.45,6.92,12.45,15.92v18.31Z" transform="translate(-3691.78 -1339.56)"/>
</svg>
