<svg xmlns="http://www.w3.org/2000/svg" width="80" height="75.19" viewBox="0 0 80 75.19">
  <defs>
    <style>
      .cls-1 {
        fill: #121212;
        fill-rule: evenodd;
      }
    </style>
  </defs>
  <path id="Snapchat_Icon" data-name="Snapchat Icon" class="cls-1" d="M3078.59,1395.92a1.7,1.7,0,0,0-1.2-2.48c-10.88-1.79-15.78-12.95-15.98-13.43a0.3,0.3,0,0,0-.04-0.08,3.567,3.567,0,0,1-.38-2.93c0.63-1.48,2.94-2.21,4.47-2.7,0.43-.13.83-0.26,1.16-0.39,2.71-1.07,4.07-2.39,4.05-3.91a3.255,3.255,0,0,0-2.44-2.79h0a4.175,4.175,0,0,0-3.2-.01,9.541,9.541,0,0,1-3.45.98,3.14,3.14,0,0,1-1.35-.34c0.32-5.66,1.11-13.65-.89-18.13a21.133,21.133,0,0,0-19.8-12.75l-1.58.01c-3.3,0-14.48.92-19.76,12.75-2,4.48-1.21,12.51-.89,18.12a3.175,3.175,0,0,1-1.55.34,8.96,8.96,0,0,1-3.68-.98c-1.76-.83-4.78.41-5.16,2.41-0.22,1.15.3,2.84,4,4.3,1.44,0.57,4.85,1.23,5.64,3.09a3.576,3.576,0,0,1-.39,2.93,0.3,0.3,0,0,1-.04.08c-0.2.48-5.1,11.64-15.97,13.43a1.718,1.718,0,0,0-1.39,1.64,0.308,0.308,0,0,0,.01.09c0.18,3.25,7.47,4.52,10.7,5.02a30.815,30.815,0,0,1,1.02,3.77,1.854,1.854,0,0,0,1.94,1.42c1.27,0,3.12-.74,6.07-0.74,4.13,0,5.55.93,8.79,3.21,2.32,1.64,6.44,4.65,11.38,4.29,4.89,0.21,8.16-1.87,11.57-4.28,3.22-2.28,4.64-3.22,8.79-3.22,3.07,0,4.6.67,6.07,0.67h0.05a1.8,1.8,0,0,0,1.89-1.38,28.062,28.062,0,0,1,1.02-3.74C3074.34,1399.21,3077.78,1397.82,3078.59,1395.92Z" transform="translate(-2998.78 -1336.97)"/>
</svg>
