<svg xmlns="http://www.w3.org/2000/svg" width="80" height="65" viewBox="0 0 80 65">
  <defs>
    <style>
      .cls-1 {
        fill: #121212;
        fill-rule: evenodd;
      }
    </style>
  </defs>
  <path id="Twitter" class="cls-1" d="M3758.55,1177.27a35.21,35.21,0,0,0,8.22-8.48,32.943,32.943,0,0,1-9.44,2.54,16.365,16.365,0,0,0,7.21-9.04,32.229,32.229,0,0,1-10.41,3.96,16.413,16.413,0,0,0-28.37,11.22,18.819,18.819,0,0,0,.4,3.76,46.592,46.592,0,0,1-33.8-17.16,16.2,16.2,0,0,0-2.24,8.27,16.411,16.411,0,0,0,7.31,13.66,16.458,16.458,0,0,1-7.41-2.08v0.2a16.4,16.4,0,0,0,13.15,16.09,17.11,17.11,0,0,1-4.32.56,20.891,20.891,0,0,1-3.09-.25,16.441,16.441,0,0,0,15.33,11.37,32.884,32.884,0,0,1-20.36,7,34.429,34.429,0,0,1-3.96-.2,46.341,46.341,0,0,0,25.18,7.36c30.15,0,46.65-24.98,46.65-46.65C3758.6,1178.69,3758.6,1177.98,3758.55,1177.27Z" transform="translate(-3686.78 -1161.06)"/>
</svg>
